<svg width="500" height="213" viewBox="0 0 500 213" fill="none" xmlns="http://www.w3.org/2000/svg">
<path d="M7.17459 143.846C11.1369 143.846 14.3492 140.634 14.3492 136.671V78.6593C14.3492 74.697 11.1369 71.4854 7.17459 71.4854C3.21228 71.4854 0 74.697 0 78.6593V136.671C0 140.634 3.21228 143.846 7.17459 143.846" fill="white"/>
<path d="M31.4568 128.866C35.4191 128.866 38.6314 125.653 38.6314 121.691V88.4539C38.6314 84.4915 35.4191 81.2793 31.4568 81.2793C27.4945 81.2793 24.2829 84.4915 24.2829 88.4539V121.691C24.2829 125.653 27.4945 128.866 31.4568 128.866" fill="white"/>
<path d="M55.7397 181.848C59.702 181.848 62.9143 178.636 62.9143 174.674V44.3016C62.9143 40.3392 59.702 37.1269 55.7397 37.1269C51.7774 37.1269 48.5651 40.3392 48.5651 44.3016V174.674C48.5651 178.636 51.7774 181.848 55.7397 181.848Z" fill="white"/>
<path d="M80.0226 151.54C83.9849 151.54 87.1965 148.327 87.1965 144.365V7.75289C87.1965 3.79057 83.9849 0.578972 80.0226 0.578972C76.0603 0.578972 72.848 3.79057 72.848 7.75289V144.365C72.848 148.327 76.0603 151.54 80.0226 151.54" fill="white"/>
<path d="M104.305 213C108.267 213 111.479 209.788 111.479 205.826V70.9654C111.479 67.0038 108.267 63.7915 104.305 63.7915C100.342 63.7915 97.1302 67.0038 97.1302 70.9654V205.826C97.1302 209.788 100.342 213 104.305 213Z" fill="white"/>
<path d="M128.587 187.411C132.549 187.411 135.762 184.2 135.762 180.237V32.3347C135.762 28.3724 132.549 25.1601 128.587 25.1601C124.625 25.1601 121.413 28.3724 121.413 32.3347V180.237C121.413 184.2 124.625 187.411 128.587 187.411" fill="white"/>
<path d="M152.87 128.866C156.832 128.866 160.044 125.653 160.044 121.691V83.2332C160.044 79.2716 156.832 76.0593 152.87 76.0593C148.908 76.0593 145.695 79.2716 145.695 83.2332V121.691C145.695 125.653 148.908 128.866 152.87 128.866" fill="white"/>
<path d="M177.152 143.846C181.114 143.846 184.327 140.634 184.327 136.672V78.6593C184.327 74.697 181.114 71.4854 177.152 71.4854C173.19 71.4854 169.978 74.697 169.978 78.6593V136.672C169.978 140.634 173.19 143.846 177.152 143.846" fill="white"/>
<path d="M201.435 128.866C205.397 128.866 208.61 125.653 208.61 121.691V88.4539C208.61 84.4915 205.397 81.2793 201.435 81.2793C197.473 81.2793 194.26 84.4915 194.26 88.4539V121.691C194.26 125.653 197.473 128.866 201.435 128.866" fill="white"/>
<path d="M225.718 181.848C229.68 181.848 232.892 178.636 232.892 174.674V44.3016C232.892 40.3392 229.68 37.1269 225.718 37.1269C221.755 37.1269 218.543 40.3392 218.543 44.3016V174.674C218.543 178.636 221.755 181.848 225.718 181.848Z" fill="white"/>
<path d="M250 151.54C253.962 151.54 257.175 148.327 257.175 144.365V7.75289C257.175 3.79057 253.962 0.578972 250 0.578972C246.038 0.578972 242.825 3.79057 242.825 7.75289V144.365C242.825 148.327 246.038 151.54 250 151.54" fill="white"/>
<path d="M274.282 213H274.283C278.245 213 281.457 209.788 281.457 205.826V70.9654C281.457 67.0038 278.245 63.7915 274.283 63.7915H274.282C270.32 63.7915 267.108 67.0038 267.108 70.9654V205.826C267.108 209.788 270.32 213 274.282 213Z" fill="white"/>
<path d="M298.565 187.411C302.527 187.411 305.74 184.2 305.74 180.237V32.3347C305.74 28.3724 302.527 25.1601 298.565 25.1601C294.603 25.1601 291.391 28.3724 291.391 32.3347V180.237C291.391 184.2 294.603 187.411 298.565 187.411" fill="white"/>
<path d="M322.848 128.866C326.81 128.866 330.022 125.653 330.022 121.691V83.2332C330.022 79.2709 326.81 76.0593 322.848 76.0593C318.886 76.0593 315.673 79.2709 315.673 83.2332V121.691C315.673 125.653 318.886 128.866 322.848 128.866" fill="white"/>
<path d="M347.13 143.846C351.092 143.846 354.305 140.634 354.305 136.672V78.6593C354.305 74.697 351.092 71.4854 347.13 71.4854C343.168 71.4854 339.956 74.697 339.956 78.6593V136.672C339.956 140.634 343.168 143.846 347.13 143.846" fill="white"/>
<path d="M371.413 128.866C375.375 128.866 378.587 125.653 378.587 121.691V88.4539C378.587 84.4915 375.375 81.2793 371.413 81.2793C367.451 81.2793 364.238 84.4915 364.238 88.4539V121.691C364.238 125.653 367.451 128.866 371.413 128.866" fill="white"/>
<path d="M395.695 181.848C399.658 181.848 402.87 178.636 402.87 174.674V44.3016C402.87 40.3392 399.658 37.1269 395.695 37.1269C391.733 37.1269 388.521 40.3392 388.521 44.3016V174.674C388.521 178.636 391.733 181.848 395.695 181.848Z" fill="white"/>
<path d="M419.977 151.54H419.978C423.94 151.54 427.152 148.327 427.152 144.365V7.75289C427.152 3.79057 423.94 0.578972 419.978 0.578972H419.977C416.015 0.578972 412.804 3.79057 412.804 7.75289V144.365C412.804 148.327 416.015 151.54 419.977 151.54" fill="white"/>
<path d="M444.26 213C448.223 213 451.435 209.788 451.435 205.826V70.9661C451.435 67.0038 448.223 63.7915 444.26 63.7915C440.298 63.7915 437.086 67.0038 437.086 70.9661V205.826C437.086 209.788 440.298 213 444.26 213Z" fill="white"/>
<path d="M468.543 187.411C472.506 187.411 475.717 184.2 475.717 180.237V32.334C475.717 28.3724 472.506 25.1601 468.543 25.1601C464.581 25.1601 461.369 28.3724 461.369 32.334V180.237C461.369 184.2 464.581 187.411 468.543 187.411" fill="white"/>
<path d="M485.651 83.2332V121.691C485.651 125.653 488.863 128.866 492.825 128.866C496.788 128.866 500 125.653 500 121.691V83.2332C500 79.2709 496.788 76.0593 492.825 76.0593C488.863 76.0593 485.651 79.2709 485.651 83.2332Z" fill="white"/>
</svg>
