<svg width="28" height="28" viewBox="0 0 28 28" fill="none" xmlns="http://www.w3.org/2000/svg">
<path d="M12 14.7083V18.5917M16 14.7083V18.5917M7.29802 14.6172C7.47035 13.5477 7.94027 12.5737 8.62639 11.7799C12.1789 12.4152 15.8211 12.4152 19.3736 11.7799C20.0597 12.5737 20.5296 13.5477 20.702 14.6172L20.7396 14.8505C20.9112 15.9157 20.8462 17.0041 20.5489 18.0429L20.4313 18.454C19.7751 20.7471 17.8194 22.4696 15.4049 22.8812C14.4754 23.0396 13.5246 23.0396 12.595 22.8812C10.1806 22.4696 8.22491 20.7471 7.5687 18.454L7.45105 18.0429C7.15379 17.0041 7.08879 15.9157 7.26042 14.8505L7.29802 14.6172ZM19.5112 11.755C15.8693 12.4235 12.1307 12.4235 8.48878 11.755C7.62523 11.5964 7 10.8639 7 10.0107V9.86432C7 8.78636 7.90011 7.9125 9.01045 7.9125H18.9895C20.0999 7.9125 21 8.78636 21 9.86432V10.0107C21 10.8639 20.3748 11.5964 19.5112 11.755ZM11.2284 6.79794C11.0776 7.1513 11 7.53003 11 7.9125L17 7.9125C17 7.53003 16.9224 7.1513 16.7716 6.79794C16.6209 6.44458 16.3999 6.1235 16.1213 5.85305C15.8427 5.5826 15.512 5.36807 15.1481 5.2217C14.7841 5.07533 14.394 5 14 5C13.606 5 13.2159 5.07533 12.8519 5.2217C12.488 5.36807 12.1573 5.5826 11.8787 5.85305C11.6001 6.1235 11.3791 6.44458 11.2284 6.79794Z" stroke="#F40B0B" stroke-width="1.5" stroke-linecap="round"/>
</svg>
