<svg width="24" height="24" viewBox="0 0 24 24" fill="none" xmlns="http://www.w3.org/2000/svg">
<path d="M17.6938 4.90625C17.4415 4.90625 17.1949 4.98106 16.9851 5.12123C16.7754 5.2614 16.6119 5.46061 16.5153 5.6937C16.4188 5.92679 16.3935 6.18329 16.4427 6.43074C16.4919 6.67818 16.6134 6.90547 16.7918 7.08387C16.9702 7.26227 17.1975 7.38375 17.445 7.43297C17.6924 7.48219 17.9489 7.45694 18.182 7.36039C18.4151 7.26384 18.6143 7.10033 18.7545 6.89056C18.8946 6.68078 18.9695 6.43415 18.9695 6.18186C18.9674 5.84418 18.8323 5.52094 18.5935 5.28217C18.3548 5.04339 18.0315 4.90833 17.6938 4.90625V4.90625Z" fill="#A30000"/>
<path d="M11.9815 6.53809C10.9187 6.53809 9.87978 6.85335 8.99621 7.44397C8.11264 8.03459 7.42413 8.87401 7.01778 9.85606C6.61143 10.8381 6.5055 11.9186 6.71342 12.9609C6.92134 14.0031 7.43375 14.9603 8.18581 15.7112C8.93787 16.4622 9.89579 16.9732 10.9383 17.1796C11.9809 17.3859 13.0613 17.2784 14.0427 16.8706C15.0241 16.4628 15.8626 15.7731 16.4519 14.8886C17.0412 14.0042 17.3549 12.9648 17.3533 11.902C17.3512 10.4787 16.7844 9.11437 15.7772 8.10866C14.77 7.10295 13.4048 6.53808 11.9815 6.53809V6.53809ZM11.9815 15.3486C11.2995 15.3501 10.6324 15.1493 10.0645 14.7716C9.4967 14.3938 9.05372 13.8561 8.79164 13.2265C8.52956 12.5968 8.46018 11.9036 8.59227 11.2345C8.72436 10.5654 9.05199 9.95056 9.53368 9.46776C10.0154 8.98496 10.6295 8.65593 11.2982 8.5223C11.967 8.38867 12.6604 8.45646 13.2907 8.71709C13.9209 8.97771 14.4596 9.41945 14.8387 9.98641C15.2178 10.5534 15.4201 11.22 15.4201 11.902C15.4211 12.3546 15.333 12.803 15.1608 13.2216C14.9886 13.6401 14.7355 14.0207 14.4162 14.3414C14.0969 14.6622 13.7176 14.9169 13.2998 15.0911C12.8821 15.2653 12.4341 15.3555 11.9815 15.3565V15.3486Z" fill="#A30000"/>
<path d="M16.2678 22.8123H7.55241C5.81598 22.8123 4.15055 22.1231 2.92196 20.8959C1.69337 19.6688 1.0021 18.0043 1 16.2678V7.5524C1.0021 5.81524 1.69312 4.14983 2.92148 2.92146C4.14984 1.6931 5.81525 1.0021 7.55241 1H16.2678C18.005 1.0021 19.6704 1.6931 20.8988 2.92146C22.1271 4.14983 22.8181 5.81524 22.8202 7.5524V16.2678C22.8181 18.0043 22.1269 19.6688 20.8983 20.8959C19.6697 22.1231 18.0043 22.8123 16.2678 22.8123V22.8123ZM7.55241 3.05999C6.3595 3.06208 5.21604 3.5369 4.37252 4.38043C3.529 5.22395 3.05418 6.36741 3.05208 7.56033V16.2757C3.05418 17.4687 3.529 18.6121 4.37252 19.4556C5.21604 20.2992 6.3595 20.774 7.55241 20.7761H16.2678C17.4607 20.774 18.6042 20.2992 19.4477 19.4556C20.2912 18.6121 20.7661 17.4687 20.7681 16.2757V7.56033C20.7661 6.36741 20.2912 5.22395 19.4477 4.38043C18.6042 3.5369 17.4607 3.06208 16.2678 3.05999H7.55241Z" fill="#A30000"/>
</svg>
