<svg width="24" height="24" viewBox="0 0 24 24" fill="none" xmlns="http://www.w3.org/2000/svg">
<path d="M12.0034 10.8888C11.3659 10.8888 10.8154 10.3609 10.8154 9.68643V4.20238C10.8154 3.5572 11.337 3 12.0034 3C12.6697 3 13.1913 3.52788 13.1913 4.20238V9.68643C13.1913 10.3609 12.6408 10.8888 12.0034 10.8888ZM8.43963 8.48405C8.72937 8.24944 8.90321 7.89752 8.90321 7.5456C8.90321 6.5485 7.74427 5.9913 6.96199 6.63648C4.96283 8.27876 3.77492 10.8595 4.03568 13.6748C4.41234 17.5753 7.57043 20.6839 11.4239 20.9771C16.0886 21.329 20 17.5753 20 12.9123C20 10.3609 18.8411 8.1028 17.0157 6.60715C16.2624 5.9913 15.1035 6.5485 15.1035 7.5456C15.1035 7.92685 15.2773 8.24944 15.5671 8.48405C16.8419 9.5398 17.6532 11.1234 17.6532 12.9123C17.6532 16.2556 14.7558 18.9536 11.3659 18.5724C8.75834 18.2791 6.67226 16.1383 6.4115 13.4989C6.20868 11.4753 7.04891 9.65711 8.43963 8.48405Z" fill="white"/>
</svg>
