<svg width="24" height="24" viewBox="0 0 24 24" fill="none" xmlns="http://www.w3.org/2000/svg">
<path d="M22.3599 5.13181C21.6665 5.43216 20.9366 5.63995 20.189 5.74982C20.5376 5.69435 21.0526 5.0605 21.2586 4.80696C21.5775 4.41646 21.8219 3.97063 21.9796 3.49173C21.9796 3.45211 21.9796 3.40458 21.9796 3.37288C21.9627 3.36315 21.9436 3.35801 21.9241 3.35801C21.9047 3.35801 21.8855 3.36315 21.8687 3.37288C21.0506 3.8036 20.1833 4.13349 19.2857 4.35534C19.2551 4.3641 19.2227 4.3643 19.1919 4.35592C19.1612 4.34754 19.1334 4.3309 19.1114 4.3078C19.0388 4.23418 18.9592 4.16784 18.8737 4.10973C18.5045 3.78026 18.0845 3.5127 17.6298 3.31742C17.0215 3.07357 16.3666 2.96801 15.7124 3.0084C15.0769 3.05577 14.4577 3.23192 13.8925 3.52613C13.3272 3.82034 12.8277 4.22646 12.4243 4.7198C12.0103 5.23635 11.713 5.8364 11.5528 6.47873C11.4154 7.08762 11.3992 7.7176 11.5053 8.33273C11.5053 8.43573 11.5052 8.44366 11.4181 8.43574C7.87646 7.90489 4.93698 6.63721 2.55213 3.91958C2.44913 3.80073 2.39367 3.80073 2.31444 3.91958C1.26859 5.5042 1.77567 7.99997 3.10675 9.23598C3.28106 9.39444 3.46329 9.56083 3.65345 9.71137C3.05725 9.66713 2.47565 9.50558 1.94206 9.23598C1.83905 9.16467 1.79152 9.23597 1.77568 9.32312C1.76041 9.4918 1.76041 9.66153 1.77568 9.83021C1.87957 10.6273 2.19323 11.3825 2.68463 12.0187C3.17602 12.6549 3.82752 13.1492 4.57253 13.4511C4.75501 13.5318 4.94654 13.5904 5.143 13.6254C4.58956 13.7327 4.02258 13.7514 3.46328 13.6808C3.34443 13.6808 3.2969 13.6808 3.34444 13.8314C3.6312 14.583 4.10589 15.2487 4.72315 15.7647C5.3404 16.2807 6.07962 16.6298 6.87023 16.7788C7.02869 16.7788 7.18716 16.7788 7.34562 16.8501C6.94946 17.4522 5.57877 17.9039 4.96869 18.1257C3.80049 18.5488 2.55321 18.7084 1.31612 18.5932C1.11805 18.5932 1.07843 18.5932 1.02297 18.5932C0.96751 18.5932 1.02298 18.6724 1.07844 18.7279C1.33198 18.8943 1.58552 19.0369 1.87075 19.1795C2.64818 19.5941 3.46931 19.9209 4.31899 20.154C8.70839 21.3663 13.6524 20.4789 16.9484 17.1987C19.5393 14.6316 20.4425 11.0821 20.4425 7.53251C20.4425 7.3899 20.6089 7.31859 20.704 7.23936C21.3607 6.7319 21.9399 6.13135 22.4233 5.45666C22.4993 5.35624 22.541 5.234 22.5421 5.10805V5.10805C22.455 5.07635 22.447 5.0922 22.3599 5.13181Z" fill="#A30000"/>
</svg>
