<svg width="24" height="24" viewBox="0 0 24 24" fill="none" xmlns="http://www.w3.org/2000/svg">
<rect width="24" height="24" fill="white"/>
<path d="M11.5003 0C8.18125 2.93272 7.43477 4.01845 1.43213 4.01845C-0.221219 9.63429 2.81404 21.2591 11.5003 23C20.1865 21.2591 23.2218 9.60309 21.5684 4.01845C15.5658 4.01845 14.8193 2.93272 11.5003 0Z" fill="url(#paint0_linear_6_2)"/>
<path d="M11.5005 22.3261H11.4697C7.76815 21.5211 5.46704 18.8318 4.20852 16.7102C1.74083 12.5483 1.26581 7.73112 1.9074 4.80464V4.67361H2.03696C7.31164 4.59873 8.45294 3.5754 11.2229 1.10442L11.4758 0.873535L11.735 1.10442C14.4988 3.60036 15.6462 4.59873 20.9147 4.67361H21.0443L21.0752 4.80464C21.6921 7.73112 21.2479 12.5483 18.7679 16.7102C17.534 18.8255 15.2329 21.5149 11.5129 22.3261H11.5005ZM2.19736 4.99807C1.58044 7.87463 2.09248 12.4859 4.48614 16.5417C5.71998 18.5947 7.91622 21.2029 11.5005 21.9954C15.0848 21.2029 17.2934 18.5947 18.5149 16.5417C20.9086 12.5171 21.3898 7.87463 20.8099 4.99807C15.5229 4.90447 14.2705 3.78754 11.5561 1.34777L11.5129 1.31658L11.4758 1.34777C8.73672 3.78754 7.4782 4.90447 2.19736 4.99807V4.99807Z" fill="#A30000"/>
<path d="M8.00049 11.5L10.5005 14L15.5005 9" stroke="#A30000" stroke-width="2" stroke-linecap="round"/>
<defs>
<linearGradient id="paint0_linear_6_2" x1="1.00029" y1="11.5" x2="22.0003" y2="11.5" gradientUnits="userSpaceOnUse">
<stop stop-color="#FFE189"/>
<stop offset="1" stop-color="#FFB733"/>
</linearGradient>
</defs>
</svg>
