<svg width="32" height="32" viewBox="0 0 32 32" fill="none" xmlns="http://www.w3.org/2000/svg">
<path d="M21.4102 23C21.8789 23 22.276 22.8372 22.6016 22.5117C22.9271 22.1862 23.0898 21.7891 23.0898 21.3203V20.5H15.5898C15.1211 20.5 14.724 20.3372 14.3984 20.0117C14.0729 19.6862 13.9102 19.2891 13.9102 18.8203V12.1797C13.9102 11.7109 14.0729 11.3138 14.3984 10.9883C14.724 10.6628 15.1211 10.5 15.5898 10.5H23.0898V9.67969C23.0898 9.21094 22.9271 8.8138 22.6016 8.48828C22.276 8.16276 21.8789 8 21.4102 8H9.76953C9.30078 8 8.90365 8.16276 8.57813 8.48828C8.2526 8.8138 8.08984 9.21094 8.08984 9.67969V21.3203C8.08984 21.7891 8.2526 22.1862 8.57813 22.5117C8.90365 22.8372 9.30078 23 9.76953 23H21.4102ZM23.9102 18.8203V12.1797H15.5898V18.8203H23.9102ZM18.9297 14.25C19.2813 14.25 19.5742 14.3737 19.8086 14.6211C20.043 14.8685 20.1602 15.1615 20.1602 15.5C20.1602 15.8385 20.043 16.1315 19.8086 16.3789C19.5742 16.6263 19.2813 16.75 18.9297 16.75C18.5781 16.75 18.2787 16.6263 18.0313 16.3789C17.7839 16.1315 17.6602 15.8385 17.6602 15.5C17.6602 15.1615 17.7839 14.8685 18.0313 14.6211C18.2787 14.3737 18.5781 14.25 18.9297 14.25ZM21.4102 24.25H9.76953C8.97082 24.25 8.2532 23.9545 7.69425 23.3956C7.13529 22.8367 6.83984 22.119 6.83984 21.3203V9.67969C6.83984 8.88096 7.13529 8.16333 7.69426 7.60438C8.2532 7.04545 8.97082 6.75 9.76953 6.75H21.4102C22.2089 6.75 22.9265 7.04545 23.4854 7.6044C24.0444 8.16335 24.3398 8.88097 24.3398 9.67969V10.9297H25.1602V20.0703H24.3398V21.3203C24.3398 22.119 24.0444 22.8366 23.4854 23.3956C22.9265 23.9545 22.2089 24.25 21.4102 24.25Z" fill="white"/>
<path d="M28 19H21V26H28V19Z" fill="#A30000"/>
<path d="M28.75 18.25H20.25V26.75H28.75V18.25Z" stroke="#A30000" stroke-width="1.5"/>
<path d="M25.9302 26.4297H25.1802H23.5005H22.7505V25.6797V23.9297H21.0005H20.2505V23.1797V21.5V20.75H21.0005H22.7505V19V18.25H23.5005H25.1802H25.9302V19V20.75H27.6802H28.4302V21.5V23.1797V23.9297H27.6802H25.9302V25.6797V26.4297Z" fill="white"/>
<path d="M25.1802 25.6797V23.1797H27.6802V21.5H25.1802V19H23.5005V21.5H21.0005V23.1797H23.5005V25.6797H25.1802ZM26.6802 27.1797H22.0005V24.6797H19.5005V20H22.0005V17.5H26.6802V20H29.1802V24.6797H26.6802V27.1797Z" fill="#A30000"/>
</svg>
