<svg width="24" height="24" viewBox="0 0 24 24" fill="none" xmlns="http://www.w3.org/2000/svg">
<g clip-path="url(#clip0_102_17)">
<path d="M24.1021 9.2847C24.1021 7.88311 23.5453 6.53892 22.5542 5.54784C21.5632 4.55677 20.219 4 18.8174 4H5.29265C3.89033 4 2.54533 4.55651 1.55299 5.54736C0.560661 6.53821 0.00209929 7.88238 0 9.2847V15.5836C0.00209929 16.9859 0.560661 18.3301 1.55299 19.3209C2.54533 20.3118 3.89033 20.8683 5.29265 20.8683H18.8174C20.219 20.8683 21.5632 20.3115 22.5542 19.3204C23.5453 18.3294 24.1021 16.9852 24.1021 15.5836V9.2847ZM16.179 12.9056L10.1178 15.9084C9.88013 16.0352 9.07197 15.8609 9.07197 15.5915V9.43524C9.07197 9.15793 9.86427 8.98361 10.1257 9.12623L15.9255 12.2955C16.1394 12.4222 16.3929 12.7709 16.1473 12.9056H16.179Z" fill="#A30000"/>
</g>
<defs>
<clipPath id="clip0_102_17">
<rect width="24" height="24" fill="white"/>
</clipPath>
</defs>
</svg>
